<?xml version="1.0" encoding="utf-8"?>
<!-- Generator: Adobe Illustrator 18.0.0, SVG Export Plug-In . SVG Version: 6.00 Build 0)  -->
<!DOCTYPE svg PUBLIC "-//W3C//DTD SVG 1.1//EN" "http://www.w3.org/Graphics/SVG/1.1/DTD/svg11.dtd">
<svg version="1.1" id="Layer_1" xmlns="http://www.w3.org/2000/svg" xmlns:xlink="http://www.w3.org/1999/xlink" x="0px" y="0px"
	 viewBox="0 0 16 16" enable-background="new 0 0 16 16" xml:space="preserve">
<g>
	<path fill="#FFA366" d="M3.2,5.5c0-1.6,0.4-2.8,1.5-3.8c0.8-0.7,1.7-1.1,2.7-1.3c1.2-0.1,2.3,0.1,3.3,0.7c1.2,0.8,1.8,1.9,2.1,3.2
		c0.3,1.4-0.1,2.7-0.9,3.9c-0.3,0.4-0.6,0.9-0.9,1.3c-0.3,0.5-0.5,1-0.5,1.6c0,0.3-0.2,0.5-0.3,0.6c-0.4,0.3-0.8,0.5-1.3,0.6
		c-0.9,0.2-1.7,0.1-2.5-0.3c-0.2-0.1-0.4-0.3-0.6-0.4c-0.1-0.1-0.2-0.3-0.2-0.5c0-0.5-0.2-1-0.4-1.4C4.9,9.4,4.6,9,4.3,8.6
		c-0.5-0.7-0.9-1.4-1-2.3C3.2,6,3.2,5.6,3.2,5.5z M10.4,6c0,0.2,0,0.3,0,0.4c0,0.2,0,0.4-0.2,0.6c0,0-0.1,0.1-0.1,0.2
		c0.1,0.3,0.3,0.5,0.6,0.5c0.3,0,0.5-0.2,0.6-0.5c0-0.1,0-0.1,0-0.2c-0.2-0.2-0.3-0.4-0.2-0.6c0-0.1,0-0.3,0-0.4
		c0-0.1,0-0.2,0.2-0.2c0.1,0,0.3-0.1,0.3-0.3c0-0.2-0.1-0.2-0.3-0.3c-1.1-0.3-2.1-0.7-3.2-1c-0.1,0-0.2,0-0.2,0
		c-1.1,0.3-2.1,0.7-3.2,1c-0.1,0-0.3,0.1-0.3,0.3c0,0.2,0.1,0.2,0.2,0.3C5,5.9,5.4,6,5.8,6.1C6,6.2,6,6.2,6,6.3c0,0.5,0,0.9,0,1.4
		C6,7.9,6,8,6.2,8.1c1,0.8,2.4,0.8,3.4,0C9.8,8,9.8,7.9,9.8,7.7c0-0.5,0-1,0-1.5C10,6.1,10.2,6.1,10.4,6z M5.3,3.5
		c0.1-0.1,0.2-0.1,0.3-0.2c0.5-0.6,1.1-1.1,1.9-1.2c0.2,0,0.3-0.2,0.3-0.4c0-0.2-0.2-0.3-0.4-0.2C7.2,1.6,7.1,1.6,7,1.7
		C6.2,1.9,5.6,2.4,5.1,3C5,3.1,5,3.2,5.1,3.3C5.1,3.4,5.2,3.4,5.3,3.5z"/>
	<path fill="#FFA366" d="M8,15.6c-0.6,0-1.1-0.4-1.2-1c0-0.1-0.1-0.1-0.2-0.2c-0.3-0.1-0.6-0.2-0.8-0.4c-0.2-0.1-0.2-0.3-0.1-0.4
		c0.1-0.1,0.3-0.2,0.4-0.1C6.8,14,7.5,14,8.3,14c0.6,0,1.1-0.1,1.6-0.5c0.1-0.1,0.3,0,0.4,0.1c0.1,0.1,0.1,0.3-0.1,0.4
		c-0.3,0.1-0.5,0.3-0.8,0.4c-0.1,0-0.2,0.1-0.2,0.2C9.1,15.2,8.6,15.6,8,15.6z M7.5,14.6C7.6,14.8,7.8,15,8.1,15
		c0.2,0,0.4-0.2,0.5-0.4C8.2,14.6,7.8,14.6,7.5,14.6z"/>
	<path fill="#FFA366" d="M8,13.6c-0.8,0-1.5-0.2-2.2-0.6c-0.1-0.1-0.1-0.1-0.2-0.2c0-0.1,0-0.2,0.1-0.3c0.1-0.1,0.2-0.1,0.3,0
		c0.3,0.2,0.6,0.3,1,0.4C7.9,13,8.6,13,9.3,12.7c0.2-0.1,0.3-0.2,0.5-0.3c0.2-0.1,0.4-0.1,0.5,0.1c0.1,0.1,0.1,0.3-0.1,0.5
		c-0.4,0.3-0.9,0.5-1.5,0.5C8.5,13.6,8.2,13.6,8,13.6z"/>
	<path fill="#FFFFFF" d="M10.4,6C10.2,6.1,10,6.1,9.8,6.2c0,0.5,0,1,0,1.5c0,0.2-0.1,0.3-0.2,0.5c-1,0.7-2.4,0.7-3.4,0
		C6,8,6,7.9,6,7.7c0-0.5,0-0.9,0-1.4c0-0.1,0-0.2-0.1-0.2C5.4,6,5,5.9,4.6,5.7c-0.1,0-0.2-0.1-0.2-0.3c0-0.2,0.1-0.3,0.3-0.3
		c1.1-0.3,2.1-0.7,3.2-1c0.1,0,0.2,0,0.2,0c1.1,0.3,2.1,0.7,3.2,1c0.1,0,0.3,0.1,0.3,0.3c0,0.2-0.1,0.3-0.3,0.3
		c-0.1,0-0.2,0.1-0.2,0.2c0,0.1,0,0.3,0,0.4c0,0.3,0,0.5,0.2,0.6c0,0,0.1,0.1,0,0.2c-0.1,0.3-0.3,0.5-0.6,0.5
		c-0.3,0-0.5-0.2-0.6-0.5c0-0.1,0-0.2,0.1-0.2c0.2-0.2,0.3-0.3,0.2-0.6C10.4,6.3,10.4,6.2,10.4,6z M9.3,6.4c-0.1,0-0.1,0-0.1,0
		c-0.3,0.1-0.7,0.2-1,0.3c-0.1,0-0.2,0-0.3,0C7.4,6.6,7,6.5,6.6,6.4c0,0.4,0,0.8,0,1.2c0,0,0.1,0.1,0.1,0.1c0.8,0.5,1.6,0.5,2.5,0
		c0,0,0.1-0.1,0.1-0.1C9.3,7.2,9.3,6.8,9.3,6.4z M10.1,5.5C10.1,5.5,10.1,5.4,10.1,5.5C9.4,5.2,8.7,5,8,4.8c-0.1,0-0.1,0-0.2,0
		C7.1,5,6.5,5.2,5.8,5.4c0,0-0.1,0-0.1,0.1c0.7,0.2,1.4,0.4,2.1,0.7c0.1,0,0.1,0,0.2,0C8.7,5.9,9.3,5.7,10,5.5
		C10,5.5,10.1,5.5,10.1,5.5z"/>
	<path fill="#FFFFFF" d="M5.3,3.5C5.2,3.4,5.1,3.4,5.1,3.3C5,3.2,5,3.1,5.1,3C5.6,2.4,6.2,1.9,7,1.7c0.1,0,0.3-0.1,0.4-0.1
		c0.2,0,0.3,0.1,0.4,0.2c0,0.2-0.1,0.3-0.3,0.4C6.7,2.3,6.1,2.7,5.6,3.3C5.5,3.4,5.4,3.4,5.3,3.5z"/>
	<path fill="#FFFFFF" d="M6.2,14.7c0.3,0,0.7,0,1,0c0,0.2-0.2,0.3-0.4,0.3C6.5,15,6.3,14.9,6.2,14.7z"/>
	<path fill="#FFA366" d="M9.3,6.4c0,0.4,0,0.8,0,1.2c0,0,0,0.1-0.1,0.1c-0.8,0.5-1.6,0.5-2.5,0c0,0-0.1-0.1-0.1-0.1
		c0-0.4,0-0.8,0-1.2C7,6.5,7.4,6.6,7.8,6.7c0.1,0,0.2,0,0.3,0c0.3-0.1,0.7-0.2,1-0.3C9.2,6.4,9.2,6.4,9.3,6.4z"/>
	<path fill="#FFA366" d="M10.1,5.5c-0.1,0-0.1,0-0.2,0.1C9.3,5.7,8.7,5.9,8,6.1c-0.1,0-0.1,0-0.2,0C7.1,5.9,6.4,5.7,5.7,5.5
		c0.1,0,0.1,0,0.1-0.1c0.7-0.2,1.3-0.4,2-0.6c0.1,0,0.1,0,0.2,0C8.7,5,9.4,5.2,10.1,5.5C10.1,5.4,10.1,5.5,10.1,5.5z"/>
</g>
</svg>
