<?xml version="1.0" encoding="utf-8"?>
<!-- Generator: Adobe Illustrator 16.0.0, SVG Export Plug-In . SVG Version: 6.00 Build 0)  -->
<!DOCTYPE svg PUBLIC "-//W3C//DTD SVG 1.1//EN" "http://www.w3.org/Graphics/SVG/1.1/DTD/svg11.dtd">
<svg version="1.1" id="Layer_1" xmlns="http://www.w3.org/2000/svg" xmlns:xlink="http://www.w3.org/1999/xlink" x="0px" y="0px"
	 width="352px" height="88px" viewBox="0 0 352 88" enable-background="new 0 0 352 88" xml:space="preserve">
<g>
	<path fill="#3095D2" d="M86.453,67.541h0.708v4.964h-0.708c-4.132,0-8.012-1.734-10.904-4.859
		c-2.856-3.084-4.424-7.172-4.424-11.496V15.592h4.964v15.517c0.735-0.176,1.432-0.249,2.23-0.249h8.841v4.965H78.32
		c-1.045,0-1.622,0.249-1.877,0.528c-0.262,0.287-0.347,0.834-0.353,1.012v18.785C76.089,62.483,80.793,67.541,86.453,67.541z"/>
	<path fill="#3095D2" d="M100.666,67.658c-2.849-3.077-4.412-7.155-4.412-11.47V30.105h4.955v26.083
		c0,6.318,4.691,11.361,10.335,11.361s10.335-5.043,10.335-11.361V30.105h4.955v26.083c0,4.314-1.563,8.393-4.413,11.47
		c-2.885,3.116-6.755,4.847-10.878,4.847S103.551,70.774,100.666,67.658z"/>
	<path fill="#3095D2" d="M153.201,67.541h0.708v4.964h-0.708c-4.132,0-8.012-1.734-10.904-4.859
		c-2.856-3.084-4.424-7.172-4.424-11.496V15.592h4.964v15.517c0.735-0.176,1.432-0.249,2.23-0.249h8.841v4.965h-8.841
		c-1.045,0-1.622,0.249-1.877,0.528c-0.262,0.287-0.347,0.834-0.353,1.012v18.785C142.837,62.483,147.541,67.541,153.201,67.541z"/>
	<path fill="#3095D2" d="M171.792,70.733c-2.205-1.092-4.177-2.649-5.857-4.617c-3.406-3.987-5.269-9.255-5.269-14.825
		s1.863-10.837,5.269-14.826c1.68-1.966,3.652-3.524,5.857-4.617c2.309-1.143,4.775-1.726,7.313-1.726
		c2.538,0,5.005,0.583,7.312,1.726c2.205,1.093,4.178,2.649,5.857,4.617c3.405,3.989,5.269,9.255,5.269,14.826
		s-1.863,10.838-5.269,14.825c-1.68,1.968-3.652,3.525-5.857,4.617c-2.308,1.144-4.774,1.727-7.312,1.727
		C176.567,72.46,174.101,71.877,171.792,70.733z M165.621,51.291c0,9.046,6.156,16.214,13.484,16.214
		c7.328,0,13.483-7.168,13.483-16.214c0-9.045-6.155-16.213-13.483-16.213C171.777,35.078,165.621,42.245,165.621,51.291z"/>
	<path fill="#3095D2" d="M206.748,72.505V46.438c0-4.32,1.565-8.402,4.416-11.481c2.889-3.12,6.764-4.853,10.89-4.853h0.708v4.959
		h-0.708c-5.65,0-10.347,5.049-10.347,11.375v26.067H206.748z"/>
	<path fill="#3095D2" d="M231.698,68.979c-3.006-2.387-4.705-5.649-4.705-9.167s1.699-6.78,4.705-9.167
		c2.88-2.287,6.658-3.53,10.638-3.53l8.604-0.007c0.021,0.001,0.897-0.02,1.257-0.357c0.25-0.236,0.483-0.759,0.514-1.633v-2.314
		c0-4.132-4.247-7.73-9.761-7.73c-3.514,0-6.649,1.462-8.412,3.826l-1.485,1.991l-3.982-2.971l1.485-1.991
		c2.739-3.671,7.379-5.824,12.395-5.824c3.839,0,7.48,1.258,10.25,3.568c2.866,2.391,4.479,5.64,4.479,9.13v17.009
		c0,3.518-1.7,6.78-4.706,9.167c-2.88,2.288-6.658,3.531-10.638,3.531S234.578,71.268,231.698,68.979z M242.337,52.083
		c-2.895,0-5.574,0.885-7.549,2.452c-1.861,1.479-2.827,3.352-2.827,5.277s0.966,3.798,2.827,5.277
		c1.975,1.567,4.654,2.452,7.548,2.452s5.575-0.885,7.548-2.452c1.861-1.479,2.827-3.352,2.827-5.277v-7.916
		c-0.911,0.209-1.579,0.192-1.856,0.18L242.337,52.083z"/>
	<path fill="#3095D2" d="M276.448,70.771c-2.138-1.1-4.045-2.665-5.669-4.637c-3.281-3.992-5.066-9.408-5.066-14.797
		c0-5.388,1.783-10.858,5.066-14.852c1.624-1.973,3.531-3.537,5.669-4.637c2.239-1.152,4.744-1.744,7.08-1.744
		c5.35,0,9.643,2.171,12.352,5.804l1.482,1.986l-3.972,2.963l-1.482-1.986c-1.753-2.35-4.869-3.806-8.358-3.811
		c-6.979,0.011-12.882,6.977-12.882,16.277c0,9.299,5.901,16.211,12.88,16.222c3.492-0.006,6.607-1.461,8.36-3.812l1.482-1.985
		l3.972,2.963l-1.482,1.985c-2.717,3.642-7.178,5.805-12.352,5.805C281.029,72.516,278.676,71.917,276.448,70.771z"/>
	<path fill="#3095D2" d="M342.334,72.505h-6.586l-18.024-20.979c0,0-0.531-0.514-0.967-0.534c-0.109-0.005-0.354,0.061-0.484,0.126
		l-3.487,2.768v18.62h-4.955V15.592h4.955v31.967l21.988-17.455h8.005l-22.042,17.472c0.451,0.377,0.734,0.702,0.856,0.852
		L342.334,72.505z"/>
</g>
<path fill-rule="evenodd" clip-rule="evenodd" fill="#3095D2" d="M9.223,33.324c0.093-6.688,1.897-11.956,6.228-16.174
	c3.252-3.168,7.207-4.893,11.706-5.379c5.042-0.548,9.798,0.3,14.083,3.101c4.953,3.241,7.75,7.925,8.764,13.696
	c1.07,6.094-0.241,11.708-3.637,16.849c-1.262,1.909-2.563,3.786-3.813,5.7c-1.324,2.028-2.187,4.209-2.224,6.686
	c-0.016,1.123-0.671,1.984-1.488,2.706c-1.542,1.364-3.418,2.018-5.37,2.504c-3.758,0.931-7.37,0.437-10.803-1.251
	c-0.925-0.455-1.807-1.14-2.489-1.912c-0.501-0.569-0.857-1.438-0.903-2.198c-0.134-2.125-0.721-4.073-1.841-5.855
	c-1.099-1.752-2.271-3.456-3.429-5.169c-2.008-2.972-3.696-6.095-4.344-9.666C9.399,35.522,9.31,34.053,9.223,33.324z
	 M40.196,35.632c0,0.666-0.054,1.269,0.01,1.86c0.119,1.013-0.143,1.811-0.975,2.452c-0.19,0.15-0.284,0.596-0.231,0.866
	c0.252,1.239,1.312,2.049,2.543,2.02c1.253-0.031,2.265-0.856,2.485-2.098c0.044-0.236-0.042-0.625-0.211-0.746
	c-0.929-0.677-1.126-1.582-1.021-2.649c0.059-0.597,0.049-1.208,0-1.804c-0.047-0.565,0.103-0.894,0.692-1.026
	c0.638-0.146,1.105-0.529,1.093-1.241c-0.012-0.708-0.5-1.056-1.115-1.248c-4.516-1.408-9.026-2.821-13.549-4.209
	c-0.319-0.096-0.721-0.095-1.041,0.005c-4.542,1.394-9.077,2.814-13.617,4.224c-0.631,0.198-1.075,0.562-1.071,1.272
	c0.006,0.686,0.444,0.99,1.063,1.175c1.77,0.53,3.526,1.11,5.297,1.634c0.452,0.133,0.587,0.344,0.579,0.807
	c-0.025,2.023-0.002,4.045-0.015,6.067c-0.004,0.68,0.243,1.185,0.796,1.6c4.344,3.232,10.279,3.297,14.701,0.165
	c0.687-0.485,1.028-1.062,1.008-1.932c-0.042-2.138-0.013-4.278-0.013-6.426C38.483,36.14,39.308,35.894,40.196,35.632z
	 M18.303,24.973c0.438-0.3,0.864-0.465,1.113-0.774c2.147-2.688,4.81-4.525,8.247-5.151c0.794-0.145,1.227-0.814,1.071-1.513
	c-0.158-0.696-0.832-1.108-1.621-0.949c-0.608,0.124-1.219,0.263-1.815,0.449c-3.236,1.001-5.76,3.006-7.85,5.617
	c-0.367,0.459-0.466,0.996-0.152,1.475C17.507,24.452,17.911,24.654,18.303,24.973z"/>
<path fill-rule="evenodd" clip-rule="evenodd" fill="#3095D2" d="M29.862,76.387c-2.433-0.004-4.602-1.724-5.089-4.1
	c-0.097-0.462-0.312-0.583-0.706-0.752c-1.188-0.5-2.365-1.041-3.499-1.655c-0.678-0.369-0.829-1.233-0.454-1.817
	c0.388-0.605,1.205-0.812,1.835-0.366c2.744,1.936,5.875,2.075,9.051,1.982c2.438-0.071,4.765-0.549,6.833-1.954
	c0.6-0.404,1.322-0.187,1.71,0.386c0.385,0.572,0.304,1.336-0.342,1.702c-1.119,0.639-2.288,1.195-3.47,1.712
	c-0.414,0.176-0.657,0.317-0.76,0.798C34.47,74.695,32.312,76.39,29.862,76.387z M27.466,72.213
	c0.561,1.113,1.567,1.695,2.595,1.564c1.024-0.128,1.795-0.731,1.995-1.564C30.549,72.213,29.045,72.213,27.466,72.213z"/>
<path fill-rule="evenodd" clip-rule="evenodd" fill="#3095D2" d="M29.782,67.935c-3.295-0.033-6.421-0.646-9.177-2.559
	c-0.327-0.226-0.63-0.613-0.749-0.985c-0.17-0.546,0.103-1.039,0.592-1.359c0.507-0.33,1.014-0.228,1.482,0.101
	c1.26,0.883,2.643,1.487,4.148,1.779c3.173,0.607,6.319,0.58,9.372-0.624c0.707-0.281,1.367-0.7,2.023-1.097
	c0.76-0.458,1.545-0.383,1.978,0.241c0.422,0.604,0.218,1.428-0.508,1.939c-1.864,1.325-3.963,2.043-6.216,2.328
	C31.751,67.826,30.765,67.858,29.782,67.935z"/>
<path fill-rule="evenodd" clip-rule="evenodd" fill="#FFFFFF" d="M40.196,35.632c-0.889,0.262-1.713,0.508-2.591,0.768
	c0,2.148-0.028,4.289,0.013,6.426c0.02,0.87-0.321,1.447-1.008,1.932c-4.422,3.133-10.357,3.067-14.701-0.165
	c-0.553-0.416-0.8-0.92-0.796-1.6c0.013-2.021-0.01-4.043,0.015-6.067c0.008-0.463-0.127-0.674-0.579-0.807
	c-1.771-0.524-3.528-1.104-5.297-1.634c-0.62-0.186-1.057-0.489-1.063-1.175c-0.004-0.71,0.44-1.074,1.071-1.272
	c4.54-1.41,9.076-2.83,13.617-4.224c0.32-0.1,0.722-0.101,1.041-0.005c4.523,1.388,9.033,2.801,13.549,4.209
	c0.614,0.192,1.103,0.54,1.115,1.248c0.013,0.711-0.455,1.095-1.093,1.241c-0.589,0.132-0.739,0.461-0.692,1.026
	c0.049,0.596,0.059,1.207,0,1.804c-0.105,1.067,0.092,1.972,1.021,2.649c0.169,0.121,0.256,0.509,0.211,0.746
	c-0.221,1.242-1.232,2.067-2.485,2.098c-1.231,0.029-2.291-0.781-2.543-2.02c-0.053-0.27,0.041-0.715,0.231-0.866
	c0.832-0.642,1.094-1.439,0.975-2.452C40.142,36.901,40.196,36.298,40.196,35.632z M35.109,37.215
	c-0.251,0.064-0.411,0.099-0.567,0.145c-1.466,0.46-2.918,0.957-4.396,1.363c-0.452,0.125-0.996,0.108-1.446-0.017
	c-1.609-0.454-3.197-0.984-4.898-1.519c0,1.814-0.011,3.536,0.016,5.257c0.002,0.156,0.22,0.364,0.39,0.459
	c3.494,1.956,6.998,1.956,10.485-0.01c0.188-0.109,0.396-0.389,0.399-0.592C35.123,40.641,35.109,38.981,35.109,37.215z
	 M38.761,33.291c-0.136-0.065-0.188-0.1-0.25-0.118c-2.936-0.914-5.865-1.831-8.808-2.722c-0.251-0.078-0.575-0.043-0.831,0.033
	c-2.803,0.852-5.599,1.721-8.396,2.59c-0.152,0.047-0.288,0.134-0.544,0.254c3.148,0.977,6.148,1.914,9.157,2.826
	c0.226,0.07,0.523-0.001,0.766-0.075c2.757-0.837,5.509-1.686,8.262-2.537C38.313,33.484,38.502,33.393,38.761,33.291z"/>
<path fill-rule="evenodd" clip-rule="evenodd" fill="#FFFFFF" d="M18.303,24.973c-0.393-0.319-0.796-0.521-1.007-0.847
	c-0.314-0.479-0.215-1.016,0.152-1.475c2.089-2.611,4.613-4.616,7.85-5.617c0.596-0.186,1.207-0.325,1.815-0.449
	c0.79-0.159,1.463,0.253,1.621,0.949c0.155,0.699-0.277,1.369-1.071,1.513c-3.437,0.625-6.1,2.462-8.247,5.151
	C19.167,24.507,18.742,24.673,18.303,24.973z"/>
<path fill-rule="evenodd" clip-rule="evenodd" fill="#3095D2" d="M21.879,72.546c1.453,0,2.837,0,4.224,0
	c-0.184,0.767-0.894,1.321-1.836,1.439C23.322,74.106,22.396,73.57,21.879,72.546z"/>
<path fill-rule="evenodd" clip-rule="evenodd" fill="#3095D2" d="M35.109,37.215c0,1.766,0.014,3.426-0.016,5.085
	c-0.003,0.203-0.211,0.483-0.399,0.592c-3.487,1.966-6.991,1.966-10.485,0.01c-0.17-0.095-0.388-0.303-0.39-0.459
	c-0.027-1.721-0.016-3.443-0.016-5.257c1.701,0.535,3.289,1.065,4.898,1.519c0.451,0.125,0.995,0.142,1.446,0.017
	c1.477-0.406,2.93-0.903,4.396-1.363C34.698,37.313,34.858,37.279,35.109,37.215z"/>
<path fill-rule="evenodd" clip-rule="evenodd" fill="#3095D2" d="M38.761,33.291c-0.258,0.103-0.448,0.193-0.645,0.252
	c-2.753,0.852-5.505,1.7-8.262,2.537c-0.242,0.074-0.54,0.145-0.766,0.075c-3.009-0.912-6.009-1.849-9.157-2.826
	c0.256-0.12,0.392-0.208,0.544-0.254c2.797-0.869,5.594-1.739,8.396-2.59c0.256-0.077,0.58-0.111,0.831-0.033
	c2.943,0.891,5.873,1.808,8.808,2.722C38.572,33.19,38.625,33.226,38.761,33.291z"/>
</svg>
