<?xml version="1.0" encoding="utf-8"?>
<!-- Generator: Adobe Illustrator 16.0.0, SVG Export Plug-In . SVG Version: 6.00 Build 0)  -->
<!DOCTYPE svg PUBLIC "-//W3C//DTD SVG 1.1//EN" "http://www.w3.org/Graphics/SVG/1.1/DTD/svg11.dtd">
<svg version="1.1" id="Layer_1" xmlns="http://www.w3.org/2000/svg" xmlns:xlink="http://www.w3.org/1999/xlink" x="0px" y="0px"
	 width="352px" height="88px" viewBox="0 0 352 88" enable-background="new 0 0 352 88" xml:space="preserve">
<g>
	<path fill="#8DC63F" d="M89.928,67.343h0.686v4.806h-0.686c-4,0-7.756-1.68-10.556-4.704c-2.765-2.985-4.282-6.942-4.282-11.129
		V17.055h4.806v15.021c0.712-0.17,1.386-0.24,2.159-0.24h8.559v4.806h-8.559c-1.012,0-1.57,0.241-1.817,0.512
		c-0.254,0.277-0.336,0.808-0.342,0.979v18.184C79.896,62.447,84.449,67.343,89.928,67.343z"/>
	<path fill="#8DC63F" d="M103.687,67.456c-2.758-2.979-4.271-6.926-4.271-11.103V31.104h4.797v25.249
		c0,6.116,4.541,10.998,10.005,10.998s10.005-4.882,10.005-10.998V31.104h4.797v25.249c0,4.177-1.514,8.124-4.271,11.103
		c-2.793,3.017-6.539,4.692-10.53,4.692S106.479,70.473,103.687,67.456z"/>
	<path fill="#8DC63F" d="M154.541,67.343h0.686v4.806h-0.686c-4,0-7.756-1.68-10.556-4.704c-2.765-2.985-4.282-6.942-4.282-11.129
		V17.055h4.806v15.021c0.712-0.17,1.386-0.24,2.159-0.24h8.559v4.806h-8.559c-1.012,0-1.57,0.241-1.817,0.512
		c-0.254,0.277-0.336,0.808-0.342,0.979v18.184C144.509,62.447,149.062,67.343,154.541,67.343z"/>
	<path fill="#8DC63F" d="M172.538,70.434c-2.135-1.058-4.044-2.565-5.67-4.47c-3.297-3.86-5.101-8.959-5.101-14.352
		c0-5.392,1.804-10.49,5.101-14.352c1.626-1.903,3.535-3.411,5.67-4.469c2.234-1.106,4.622-1.671,7.079-1.671
		s4.845,0.564,7.079,1.671c2.135,1.058,4.044,2.564,5.67,4.469c3.297,3.861,5.101,8.96,5.101,14.352
		c0,5.393-1.804,10.491-5.101,14.352c-1.626,1.904-3.535,3.412-5.67,4.47c-2.234,1.106-4.622,1.671-7.079,1.671
		S174.772,71.54,172.538,70.434z M166.564,51.612c0,8.757,5.959,15.695,13.053,15.695s13.053-6.938,13.053-15.695
		c0-8.756-5.959-15.694-13.053-15.694S166.564,42.855,166.564,51.612z"/>
	<path fill="#8DC63F" d="M206.376,72.148V46.914c0-4.182,1.516-8.133,4.275-11.114c2.796-3.02,6.547-4.697,10.541-4.697h0.686v4.801
		h-0.686c-5.47,0-10.016,4.888-10.016,11.011v25.234H206.376z"/>
	<path fill="#8DC63F" d="M230.528,68.735c-2.909-2.311-4.555-5.469-4.555-8.874s1.646-6.563,4.555-8.874
		c2.788-2.214,6.445-3.417,10.298-3.417l8.329-0.007c0.02,0.001,0.869-0.019,1.217-0.346c0.242-0.229,0.468-0.734,0.497-1.581v-2.24
		c0-4-4.111-7.482-9.448-7.482c-3.401,0-6.437,1.415-8.144,3.703l-1.438,1.928l-3.855-2.876l1.438-1.927
		c2.651-3.554,7.143-5.638,11.998-5.638c3.716,0,7.241,1.218,9.922,3.454c2.774,2.314,4.336,5.46,4.336,8.838v16.465
		c0,3.405-1.646,6.563-4.555,8.874c-2.788,2.215-6.445,3.418-10.298,3.418S233.316,70.95,230.528,68.735z M240.827,52.379
		c-2.802,0-5.396,0.856-7.308,2.374c-1.802,1.432-2.736,3.244-2.736,5.108s0.935,3.677,2.736,5.108
		c1.911,1.518,4.506,2.374,7.307,2.374s5.396-0.856,7.307-2.374c1.802-1.432,2.736-3.244,2.736-5.108v-7.663
		c-0.882,0.203-1.528,0.187-1.797,0.175L240.827,52.379z"/>
	<path fill="#8DC63F" d="M273.848,70.47c-2.069-1.064-3.916-2.579-5.487-4.488c-3.177-3.864-4.905-9.107-4.905-14.323
		s1.727-10.511,4.905-14.377c1.571-1.91,3.418-3.424,5.487-4.488c2.168-1.115,4.593-1.688,6.854-1.688
		c5.179,0,9.334,2.102,11.957,5.618l1.435,1.923l-3.845,2.868l-1.435-1.923c-1.697-2.274-4.714-3.685-8.092-3.689
		c-6.756,0.011-12.47,6.754-12.47,15.757c0,9.001,5.713,15.692,12.468,15.703c3.381-0.006,6.396-1.415,8.094-3.69l1.435-1.922
		l3.845,2.868l-1.435,1.922c-2.63,3.525-6.948,5.619-11.957,5.619C278.282,72.158,276.004,71.579,273.848,70.47z"/>
	<path fill="#8DC63F" d="M337.627,72.148h-6.376L313.803,51.84c0,0-0.514-0.498-0.936-0.518c-0.105-0.005-0.342,0.059-0.469,0.122
		l-3.376,2.679v18.025h-4.797V17.055h4.797v30.944l21.285-16.896h7.749L316.72,48.016c0.437,0.365,0.711,0.68,0.829,0.824
		L337.627,72.148z"/>
</g>
<path fill-rule="evenodd" clip-rule="evenodd" fill="#8DC63F" d="M15.167,34.22c0.09-6.474,1.837-11.573,6.028-15.657
	c3.148-3.066,6.977-4.736,11.332-5.207c4.88-0.53,9.484,0.29,13.633,3.002c4.795,3.137,7.502,7.672,8.483,13.258
	c1.036,5.899-0.233,11.334-3.521,16.311c-1.222,1.848-2.481,3.665-3.691,5.518c-1.281,1.964-2.117,4.074-2.152,6.472
	c-0.016,1.087-0.649,1.921-1.44,2.619c-1.492,1.321-3.309,1.953-5.198,2.424c-3.638,0.901-7.134,0.423-10.458-1.211
	c-0.896-0.44-1.749-1.103-2.409-1.851c-0.485-0.551-0.829-1.393-0.874-2.128c-0.13-2.057-0.698-3.943-1.782-5.668
	c-1.063-1.696-2.198-3.346-3.319-5.004c-1.944-2.877-3.578-5.9-4.205-9.356C15.338,36.348,15.251,34.926,15.167,34.22z
	 M45.15,36.454c0,0.645-0.053,1.229,0.01,1.801c0.115,0.98-0.139,1.753-0.943,2.374c-0.185,0.146-0.275,0.577-0.224,0.838
	c0.244,1.199,1.271,1.983,2.462,1.955c1.213-0.03,2.192-0.829,2.406-2.031c0.043-0.229-0.041-0.604-0.205-0.722
	c-0.899-0.655-1.09-1.531-0.988-2.564c0.057-0.578,0.048-1.169,0-1.746c-0.046-0.547,0.1-0.865,0.67-0.993
	c0.617-0.142,1.07-0.513,1.058-1.201c-0.012-0.686-0.484-1.022-1.079-1.208c-4.371-1.363-8.737-2.731-13.115-4.075
	c-0.309-0.093-0.698-0.092-1.008,0.005c-4.396,1.35-8.787,2.725-13.182,4.089c-0.611,0.191-1.041,0.544-1.037,1.231
	c0.006,0.664,0.43,0.958,1.029,1.138c1.713,0.513,3.413,1.074,5.128,1.582c0.438,0.129,0.568,0.333,0.561,0.781
	c-0.024,1.959-0.002,3.916-0.015,5.873c-0.004,0.658,0.235,1.146,0.771,1.549c4.205,3.129,9.95,3.192,14.23,0.159
	c0.665-0.47,0.995-1.028,0.976-1.87c-0.04-2.069-0.013-4.142-0.013-6.221C43.492,36.946,44.29,36.708,45.15,36.454z M23.957,26.136
	c0.425-0.29,0.837-0.45,1.077-0.749c2.079-2.603,4.656-4.381,7.983-4.986c0.769-0.14,1.188-0.788,1.037-1.465
	c-0.152-0.674-0.805-1.072-1.569-0.919c-0.589,0.12-1.18,0.255-1.757,0.435c-3.133,0.969-5.576,2.91-7.599,5.438
	c-0.355,0.444-0.451,0.964-0.147,1.428C23.187,25.632,23.577,25.827,23.957,26.136z"/>
<path fill-rule="evenodd" clip-rule="evenodd" fill="#8DC63F" d="M35.146,75.906c-2.354-0.004-4.454-1.669-4.926-3.969
	c-0.094-0.447-0.303-0.564-0.684-0.729c-1.15-0.483-2.289-1.008-3.387-1.602c-0.656-0.357-0.803-1.194-0.439-1.76
	c0.375-0.586,1.166-0.785,1.776-0.354c2.656,1.874,5.687,2.009,8.762,1.919c2.359-0.068,4.612-0.531,6.614-1.892
	c0.581-0.392,1.28-0.181,1.655,0.374c0.373,0.554,0.294,1.293-0.331,1.647c-1.083,0.618-2.215,1.157-3.359,1.657
	c-0.4,0.17-0.636,0.307-0.735,0.772C39.607,74.269,37.518,75.908,35.146,75.906z M32.827,71.865
	c0.543,1.078,1.518,1.642,2.512,1.515c0.991-0.124,1.738-0.708,1.932-1.515C35.812,71.865,34.355,71.865,32.827,71.865z"/>
<path fill-rule="evenodd" clip-rule="evenodd" fill="#8DC63F" d="M35.069,67.724c-3.19-0.032-6.216-0.626-8.884-2.477
	c-0.316-0.219-0.61-0.594-0.725-0.954c-0.165-0.528,0.1-1.006,0.573-1.315c0.491-0.319,0.981-0.221,1.435,0.098
	c1.22,0.854,2.559,1.439,4.016,1.722c3.071,0.588,6.117,0.562,9.072-0.604c0.685-0.272,1.323-0.678,1.959-1.062
	c0.735-0.443,1.496-0.371,1.914,0.233c0.409,0.584,0.211,1.382-0.491,1.877c-1.805,1.283-3.837,1.978-6.018,2.254
	C36.976,67.619,36.021,67.65,35.069,67.724z"/>
<path fill-rule="evenodd" clip-rule="evenodd" fill="#FFFFFF" d="M45.15,36.454c-0.86,0.254-1.658,0.492-2.509,0.743
	c0,2.079-0.027,4.151,0.013,6.221c0.02,0.842-0.311,1.4-0.976,1.87c-4.28,3.033-10.025,2.97-14.23-0.159
	c-0.535-0.402-0.774-0.891-0.771-1.549c0.013-1.957-0.01-3.914,0.015-5.873c0.008-0.448-0.123-0.652-0.561-0.781
	c-1.715-0.508-3.415-1.069-5.128-1.582c-0.6-0.18-1.023-0.474-1.029-1.138c-0.004-0.688,0.426-1.04,1.037-1.231
	c4.395-1.364,8.785-2.739,13.182-4.089c0.31-0.097,0.699-0.098,1.008-0.005c4.378,1.344,8.744,2.712,13.115,4.075
	c0.595,0.186,1.067,0.522,1.079,1.208c0.013,0.688-0.44,1.06-1.058,1.201c-0.57,0.128-0.716,0.446-0.67,0.993
	c0.048,0.577,0.057,1.168,0,1.746c-0.102,1.033,0.089,1.909,0.988,2.564c0.164,0.117,0.248,0.493,0.205,0.722
	c-0.214,1.202-1.193,2.001-2.406,2.031c-1.191,0.028-2.218-0.756-2.462-1.955c-0.052-0.261,0.039-0.692,0.224-0.838
	c0.805-0.621,1.059-1.394,0.943-2.374C45.098,37.683,45.15,37.099,45.15,36.454z M40.226,37.986
	c-0.243,0.062-0.397,0.096-0.549,0.141c-1.419,0.445-2.825,0.926-4.255,1.319c-0.438,0.12-0.964,0.104-1.4-0.017
	c-1.558-0.439-3.095-0.953-4.741-1.471c0,1.756-0.011,3.423,0.016,5.089c0.002,0.151,0.213,0.353,0.378,0.444
	c3.382,1.894,6.773,1.894,10.149-0.01c0.183-0.105,0.384-0.377,0.387-0.573C40.239,41.303,40.226,39.696,40.226,37.986z
	 M43.761,34.188c-0.132-0.062-0.183-0.097-0.242-0.114c-2.842-0.885-5.678-1.772-8.526-2.635c-0.243-0.075-0.557-0.042-0.805,0.032
	c-2.713,0.824-5.42,1.666-8.128,2.508c-0.147,0.045-0.278,0.13-0.526,0.246c3.048,0.945,5.951,1.853,8.864,2.735
	c0.219,0.067,0.507-0.001,0.741-0.072c2.669-0.811,5.333-1.632,7.998-2.456C43.327,34.375,43.511,34.287,43.761,34.188z"/>
<path fill-rule="evenodd" clip-rule="evenodd" fill="#FFFFFF" d="M23.957,26.136c-0.38-0.309-0.771-0.504-0.975-0.819
	c-0.304-0.464-0.208-0.983,0.147-1.428c2.022-2.527,4.466-4.469,7.599-5.438c0.577-0.18,1.168-0.314,1.757-0.435
	c0.765-0.153,1.417,0.245,1.569,0.919c0.15,0.677-0.269,1.325-1.037,1.465c-3.327,0.605-5.904,2.384-7.983,4.986
	C24.794,25.686,24.382,25.846,23.957,26.136z"/>
<path fill-rule="evenodd" clip-rule="evenodd" fill="#FFFFFF" d="M27.419,72.188c1.406,0,2.746,0,4.089,0
	c-0.178,0.742-0.865,1.279-1.777,1.394C28.815,73.698,27.919,73.18,27.419,72.188z"/>
<path fill-rule="evenodd" clip-rule="evenodd" fill="#8DC63F" d="M40.226,37.986c0,1.71,0.014,3.316-0.016,4.923
	c-0.003,0.196-0.204,0.468-0.387,0.573c-3.376,1.903-6.768,1.903-10.149,0.01c-0.165-0.092-0.376-0.293-0.378-0.444
	c-0.026-1.666-0.016-3.333-0.016-5.089c1.646,0.518,3.184,1.031,4.741,1.471c0.437,0.121,0.963,0.137,1.4,0.017
	c1.43-0.394,2.836-0.874,4.255-1.319C39.828,38.082,39.982,38.049,40.226,37.986z"/>
<path fill-rule="evenodd" clip-rule="evenodd" fill="#8DC63F" d="M43.761,34.188c-0.25,0.1-0.434,0.188-0.624,0.244
	c-2.665,0.824-5.329,1.646-7.998,2.456c-0.234,0.071-0.522,0.14-0.741,0.072c-2.913-0.883-5.816-1.79-8.864-2.735
	c0.248-0.116,0.379-0.201,0.526-0.246c2.708-0.842,5.415-1.684,8.128-2.508c0.248-0.074,0.562-0.107,0.805-0.032
	c2.849,0.862,5.685,1.75,8.526,2.635C43.578,34.091,43.629,34.125,43.761,34.188z"/>
<rect x="-106.214" y="-155" fill="none" stroke="#000000" stroke-miterlimit="10" width="548.214" height="426.534"/>
</svg>
