<?xml version="1.0" encoding="utf-8"?>
<!-- Generator: Adobe Illustrator 18.0.0, SVG Export Plug-In . SVG Version: 6.00 Build 0)  -->
<!DOCTYPE svg PUBLIC "-//W3C//DTD SVG 1.1//EN" "http://www.w3.org/Graphics/SVG/1.1/DTD/svg11.dtd">
<svg version="1.1" id="Layer_1" xmlns="http://www.w3.org/2000/svg" xmlns:xlink="http://www.w3.org/1999/xlink" x="0px" y="0px"
	 viewBox="0 0 352 88" enable-background="new 0 0 352 88" xml:space="preserve">
<g>
	<path fill="#FFA366" d="M89.9,67.3h0.7v4.8h-0.7c-4,0-7.8-1.7-10.6-4.7c-2.8-3-4.3-6.9-4.3-11.1V17.1h4.8v15
		c0.7-0.2,1.4-0.2,2.2-0.2h8.6v4.8h-8.6c-1,0-1.6,0.2-1.8,0.5c-0.3,0.3-0.3,0.8-0.3,1v18.2C79.9,62.4,84.4,67.3,89.9,67.3z"/>
	<path fill="#FFA366" d="M103.7,67.5c-2.8-3-4.3-6.9-4.3-11.1V31.1h4.8v25.2c0,6.1,4.5,11,10,11s10-4.9,10-11V31.1h4.8v25.2
		c0,4.2-1.5,8.1-4.3,11.1c-2.8,3-6.5,4.7-10.5,4.7S106.5,70.5,103.7,67.5z"/>
	<path fill="#FFA366" d="M154.5,67.3h0.7v4.8h-0.7c-4,0-7.8-1.7-10.6-4.7c-2.8-3-4.3-6.9-4.3-11.1V17.1h4.8v15
		c0.7-0.2,1.4-0.2,2.2-0.2h8.6v4.8h-8.6c-1,0-1.6,0.2-1.8,0.5c-0.3,0.3-0.3,0.8-0.3,1v18.2C144.5,62.4,149.1,67.3,154.5,67.3z"/>
	<path fill="#FFA366" d="M172.5,70.4c-2.1-1.1-4-2.6-5.7-4.5c-3.3-3.9-5.1-9-5.1-14.4c0-5.4,1.8-10.5,5.1-14.4
		c1.6-1.9,3.5-3.4,5.7-4.5c2.2-1.1,4.6-1.7,7.1-1.7s4.8,0.6,7.1,1.7c2.1,1.1,4,2.6,5.7,4.5c3.3,3.9,5.1,9,5.1,14.4
		c0,5.4-1.8,10.5-5.1,14.4c-1.6,1.9-3.5,3.4-5.7,4.5c-2.2,1.1-4.6,1.7-7.1,1.7S174.8,71.5,172.5,70.4z M166.6,51.6
		c0,8.8,6,15.7,13.1,15.7s13.1-6.9,13.1-15.7c0-8.8-6-15.7-13.1-15.7S166.6,42.9,166.6,51.6z"/>
	<path fill="#FFA366" d="M206.4,72.1V46.9c0-4.2,1.5-8.1,4.3-11.1c2.8-3,6.5-4.7,10.5-4.7h0.7v4.8h-0.7c-5.5,0-10,4.9-10,11v25.2
		L206.4,72.1L206.4,72.1z"/>
	<path fill="#FFA366" d="M230.5,68.7c-2.9-2.3-4.6-5.5-4.6-8.9s1.6-6.6,4.6-8.9c2.8-2.2,6.4-3.4,10.3-3.4l8.3,0c0,0,0.9,0,1.2-0.3
		c0.2-0.2,0.5-0.7,0.5-1.6v-2.2c0-4-4.1-7.5-9.4-7.5c-3.4,0-6.4,1.4-8.1,3.7l-1.4,1.9l-3.9-2.9l1.4-1.9c2.7-3.6,7.1-5.6,12-5.6
		c3.7,0,7.2,1.2,9.9,3.5c2.8,2.3,4.3,5.5,4.3,8.8v16.5c0,3.4-1.6,6.6-4.6,8.9c-2.8,2.2-6.4,3.4-10.3,3.4S233.3,71,230.5,68.7z
		 M240.8,52.4c-2.8,0-5.4,0.9-7.3,2.4c-1.8,1.4-2.7,3.2-2.7,5.1s0.9,3.7,2.7,5.1c1.9,1.5,4.5,2.4,7.3,2.4s5.4-0.9,7.3-2.4
		c1.8-1.4,2.7-3.2,2.7-5.1v-7.7c-0.9,0.2-1.5,0.2-1.8,0.2L240.8,52.4z"/>
	<path fill="#FFA366" d="M273.8,70.5c-2.1-1.1-3.9-2.6-5.5-4.5c-3.2-3.9-4.9-9.1-4.9-14.3s1.7-10.5,4.9-14.4
		c1.6-1.9,3.4-3.4,5.5-4.5c2.2-1.1,4.6-1.7,6.9-1.7c5.2,0,9.3,2.1,12,5.6l1.4,1.9l-3.8,2.9l-1.4-1.9c-1.7-2.3-4.7-3.7-8.1-3.7
		c-6.8,0-12.5,6.8-12.5,15.8c0,9,5.7,15.7,12.5,15.7c3.4,0,6.4-1.4,8.1-3.7l1.4-1.9l3.8,2.9l-1.4,1.9c-2.6,3.5-6.9,5.6-12,5.6
		C278.3,72.2,276,71.6,273.8,70.5z"/>
	<path fill="#FFA366" d="M337.6,72.1h-6.4l-17.4-20.3c0,0-0.5-0.5-0.9-0.5c-0.1,0-0.3,0.1-0.5,0.1l-3.4,2.7v18h-4.8V17.1h4.8V48
		l21.3-16.9h7.7L316.7,48c0.4,0.4,0.7,0.7,0.8,0.8L337.6,72.1z"/>
</g>
<path fill="#FFA366" d="M15.2,34.2c0.1-6.5,1.8-11.6,6-15.7c3.1-3.1,7-4.7,11.3-5.2c4.9-0.5,9.5,0.3,13.6,3
	c4.8,3.1,7.5,7.7,8.5,13.3c1,5.9-0.2,11.3-3.5,16.3c-1.2,1.8-2.5,3.7-3.7,5.5c-1.3,2-2.1,4.1-2.2,6.5c0,1.1-0.6,1.9-1.4,2.6
	c-1.5,1.3-3.3,2-5.2,2.4c-3.6,0.9-7.1,0.4-10.5-1.2c-0.9-0.4-1.7-1.1-2.4-1.9c-0.5-0.6-0.8-1.4-0.9-2.1c-0.1-2.1-0.7-3.9-1.8-5.7
	c-1.1-1.7-2.2-3.3-3.3-5c-1.9-2.9-3.6-5.9-4.2-9.4C15.3,36.3,15.3,34.9,15.2,34.2z M45.2,36.5c0,0.6-0.1,1.2,0,1.8
	c0.1,1-0.1,1.8-0.9,2.4c-0.2,0.1-0.3,0.6-0.2,0.8c0.2,1.2,1.3,2,2.5,2c1.2,0,2.2-0.8,2.4-2c0-0.2,0-0.6-0.2-0.7
	c-0.9-0.7-1.1-1.5-1-2.6c0.1-0.6,0-1.2,0-1.7c0-0.5,0.1-0.9,0.7-1c0.6-0.1,1.1-0.5,1.1-1.2c0-0.7-0.5-1-1.1-1.2
	c-4.4-1.4-8.7-2.7-13.1-4.1c-0.3-0.1-0.7-0.1-1,0c-4.4,1.4-8.8,2.7-13.2,4.1c-0.6,0.2-1,0.5-1,1.2c0,0.7,0.4,1,1,1.1
	c1.7,0.5,3.4,1.1,5.1,1.6c0.4,0.1,0.6,0.3,0.6,0.8c0,2,0,3.9,0,5.9c0,0.7,0.2,1.1,0.8,1.5c4.2,3.1,10,3.2,14.2,0.2
	c0.7-0.5,1-1,1-1.9c0-2.1,0-4.1,0-6.2C43.5,36.9,44.3,36.7,45.2,36.5z M24,26.1c0.4-0.3,0.8-0.5,1.1-0.7c2.1-2.6,4.7-4.4,8-5
	c0.8-0.1,1.2-0.8,1-1.5c-0.2-0.7-0.8-1.1-1.6-0.9c-0.6,0.1-1.2,0.3-1.8,0.4c-3.1,1-5.6,2.9-7.6,5.4c-0.4,0.4-0.5,1-0.1,1.4
	C23.2,25.6,23.6,25.8,24,26.1z"/>
<path fill="#FFA366" d="M35.1,75.9c-2.4,0-4.5-1.7-4.9-4c-0.1-0.4-0.3-0.6-0.7-0.7c-1.1-0.5-2.3-1-3.4-1.6c-0.7-0.4-0.8-1.2-0.4-1.8
	c0.4-0.6,1.2-0.8,1.8-0.4c2.7,1.9,5.7,2,8.8,1.9c2.4-0.1,4.6-0.5,6.6-1.9c0.6-0.4,1.3-0.2,1.7,0.4c0.4,0.6,0.3,1.3-0.3,1.6
	c-1.1,0.6-2.2,1.2-3.4,1.7c-0.4,0.2-0.6,0.3-0.7,0.8C39.6,74.3,37.5,75.9,35.1,75.9z M32.8,71.9c0.5,1.1,1.5,1.6,2.5,1.5
	c1-0.1,1.7-0.7,1.9-1.5C35.8,71.9,34.4,71.9,32.8,71.9z"/>
<path fill="#FFA366" d="M35.1,67.7c-3.2,0-6.2-0.6-8.9-2.5c-0.3-0.2-0.6-0.6-0.7-1c-0.2-0.5,0.1-1,0.6-1.3c0.5-0.3,1-0.2,1.4,0.1
	c1.2,0.9,2.6,1.4,4,1.7c3.1,0.6,6.1,0.6,9.1-0.6c0.7-0.3,1.3-0.7,2-1.1c0.7-0.4,1.5-0.4,1.9,0.2c0.4,0.6,0.2,1.4-0.5,1.9
	c-1.8,1.3-3.8,2-6,2.3C37,67.6,36,67.7,35.1,67.7z"/>
<path fill="#FFFFFF" d="M45.2,36.5c-0.9,0.3-1.7,0.5-2.5,0.7c0,2.1,0,4.2,0,6.2c0,0.8-0.3,1.4-1,1.9c-4.3,3-10,3-14.2-0.2
	c-0.5-0.4-0.8-0.9-0.8-1.5c0-2,0-3.9,0-5.9c0-0.4-0.1-0.7-0.6-0.8c-1.7-0.5-3.4-1.1-5.1-1.6c-0.6-0.2-1-0.5-1-1.1c0-0.7,0.4-1,1-1.2
	c4.4-1.4,8.8-2.7,13.2-4.1c0.3-0.1,0.7-0.1,1,0c4.4,1.3,8.7,2.7,13.1,4.1c0.6,0.2,1.1,0.5,1.1,1.2c0,0.7-0.4,1.1-1.1,1.2
	c-0.6,0.1-0.7,0.4-0.7,1c0,0.6,0.1,1.2,0,1.7c-0.1,1,0.1,1.9,1,2.6c0.2,0.1,0.2,0.5,0.2,0.7c-0.2,1.2-1.2,2-2.4,2
	c-1.2,0-2.2-0.8-2.5-2c-0.1-0.3,0-0.7,0.2-0.8c0.8-0.6,1.1-1.4,0.9-2.4C45.1,37.7,45.2,37.1,45.2,36.5z M40.2,38
	c-0.2,0.1-0.4,0.1-0.5,0.1c-1.4,0.4-2.8,0.9-4.3,1.3c-0.4,0.1-1,0.1-1.4,0c-1.6-0.4-3.1-1-4.7-1.5c0,1.8,0,3.4,0,5.1
	c0,0.2,0.2,0.4,0.4,0.4c3.4,1.9,6.8,1.9,10.1,0c0.2-0.1,0.4-0.4,0.4-0.6C40.2,41.3,40.2,39.7,40.2,38z M43.8,34.2
	c-0.1-0.1-0.2-0.1-0.2-0.1c-2.8-0.9-5.7-1.8-8.5-2.6c-0.2-0.1-0.6,0-0.8,0c-2.7,0.8-5.4,1.7-8.1,2.5c-0.1,0-0.3,0.1-0.5,0.2
	c3,0.9,6,1.9,8.9,2.7c0.2,0.1,0.5,0,0.7-0.1c2.7-0.8,5.3-1.6,8-2.5C43.3,34.4,43.5,34.3,43.8,34.2z"/>
<path fill="#FFFFFF" d="M24,26.1c-0.4-0.3-0.8-0.5-1-0.8c-0.3-0.5-0.2-1,0.1-1.4c2-2.5,4.5-4.5,7.6-5.4c0.6-0.2,1.2-0.3,1.8-0.4
	c0.8-0.2,1.4,0.2,1.6,0.9c0.2,0.7-0.3,1.3-1,1.5c-3.3,0.6-5.9,2.4-8,5C24.8,25.7,24.4,25.8,24,26.1z"/>
<path fill="#FFFFFF" d="M27.4,72.2c1.4,0,2.7,0,4.1,0c-0.2,0.7-0.9,1.3-1.8,1.4C28.8,73.7,27.9,73.2,27.4,72.2z"/>
<path fill="#FFA366" d="M40.2,38c0,1.7,0,3.3,0,4.9c0,0.2-0.2,0.5-0.4,0.6c-3.4,1.9-6.8,1.9-10.1,0c-0.2-0.1-0.4-0.3-0.4-0.4
	c0-1.7,0-3.3,0-5.1c1.6,0.5,3.2,1,4.7,1.5c0.4,0.1,1,0.1,1.4,0c1.4-0.4,2.8-0.9,4.3-1.3C39.8,38.1,40,38,40.2,38z"/>
<path fill="#FFA366" d="M43.8,34.2c-0.2,0.1-0.4,0.2-0.6,0.2c-2.7,0.8-5.3,1.6-8,2.5C34.9,37,34.6,37,34.4,37
	c-2.9-0.9-5.8-1.8-8.9-2.7c0.2-0.1,0.4-0.2,0.5-0.2c2.7-0.8,5.4-1.7,8.1-2.5c0.2-0.1,0.6-0.1,0.8,0c2.8,0.9,5.7,1.8,8.5,2.6
	C43.6,34.1,43.6,34.1,43.8,34.2z"/>
<rect x="-106.2" y="-155" fill="none" stroke="#000000" stroke-miterlimit="10" width="548.2" height="426.5"/>
</svg>
